<svg xmlns="http://www.w3.org/2000/svg" version="1.1" xmlns:xlink="http://www.w3.org/1999/xlink" xmlns:svgjs="http://svgjs.dev/svgjs" viewBox="0 0 800 800"><defs><linearGradient x1="50%" y1="0%" x2="50%" y2="100%" id="ffflurry-grad" gradientTransform="rotate(270)"><stop stop-color="hsl(238, 82%, 13%)" stop-opacity="1" offset="0%"></stop><stop stop-color="hsl(340, 45%, 50%)" stop-opacity="1" offset="45%"></stop><stop stop-color="hsl(340, 45%, 80%)" stop-opacity="1" offset="100%"></stop></linearGradient></defs><rect width="100%" height="100%" fill="hsl(238, 82%, 13%)"></rect><g fill="url(#ffflurry-grad)"><rect width="213" height="1" x="50.5" y="762.5" rx="0.5" transform="rotate(121, 157, 763)" opacity="0.13"></rect><rect width="651" height="1" x="431.5" y="692.5" rx="0.5" transform="rotate(121, 757, 693)" opacity="0.86"></rect><rect width="123" height="1" x="705.5" y="398.5" rx="0.5" transform="rotate(121, 767, 399)" opacity="0.56"></rect><rect width="160" height="1" x="236" y="183.5" rx="0.5" transform="rotate(121, 316, 184)" opacity="0.47"></rect><rect width="833" height="1" x="287.5" y="257.5" rx="0.5" transform="rotate(121, 704, 258)" opacity="0.24"></rect><rect width="47" height="1" x="286.5" y="233.5" rx="0.5" transform="rotate(121, 310, 234)" opacity="0.87"></rect><rect width="560" height="1" x="366" y="703.5" rx="0.5" transform="rotate(121, 646, 704)" opacity="0.55"></rect><rect width="852" height="1" x="20" y="548.5" rx="0.5" transform="rotate(121, 446, 549)" opacity="0.46"></rect><rect width="341" height="1" x="529.5" y="11.5" rx="0.5" transform="rotate(121, 700, 12)" opacity="0.19"></rect><rect width="524" height="1" x="170" y="243.5" rx="0.5" transform="rotate(121, 432, 244)" opacity="0.24"></rect><rect width="648" height="1" x="187" y="223.5" rx="0.5" transform="rotate(121, 511, 224)" opacity="0.27"></rect><rect width="233" height="1" x="518.5" y="22.5" rx="0.5" transform="rotate(121, 635, 23)" opacity="0.55"></rect><rect width="117" height="1" x="-19.5" y="445.5" rx="0.5" transform="rotate(121, 39, 446)" opacity="0.90"></rect><rect width="516" height="1" x="-220" y="218.5" rx="0.5" transform="rotate(121, 38, 219)" opacity="0.39"></rect><rect width="779" height="1" x="-230.5" y="169.5" rx="0.5" transform="rotate(121, 159, 170)" opacity="0.19"></rect><rect width="848" height="1" x="162" y="696.5" rx="0.5" transform="rotate(121, 586, 697)" opacity="0.80"></rect><rect width="645" height="1" x="-299.5" y="636.5" rx="0.5" transform="rotate(121, 23, 637)" opacity="0.47"></rect><rect width="39" height="1" x="17.5" y="510.5" rx="0.5" transform="rotate(121, 37, 511)" opacity="0.16"></rect><rect width="657" height="1" x="66.5" y="91.5" rx="0.5" transform="rotate(121, 395, 92)" opacity="0.92"></rect><rect width="319" height="1" x="-92.5" y="97.5" rx="0.5" transform="rotate(121, 67, 98)" opacity="0.20"></rect><rect width="716" height="1" x="-114" y="260.5" rx="0.5" transform="rotate(121, 244, 261)" opacity="0.53"></rect><rect width="932" height="1" x="-435" y="34.5" rx="0.5" transform="rotate(121, 31, 35)" opacity="0.21"></rect><rect width="556" height="1" x="492" y="240.5" rx="0.5" transform="rotate(121, 770, 241)" opacity="0.26"></rect><rect width="358" height="1" x="176" y="12.5" rx="0.5" transform="rotate(121, 355, 13)" opacity="0.56"></rect><rect width="34" height="1" x="7" y="290.5" rx="0.5" transform="rotate(121, 24, 291)" opacity="0.68"></rect><rect width="796" height="1" x="-190" y="24.5" rx="0.5" transform="rotate(121, 208, 25)" opacity="0.33"></rect><rect width="549" height="1" x="159.5" y="753.5" rx="0.5" transform="rotate(121, 434, 754)" opacity="0.28"></rect><rect width="594" height="1" x="-46" y="387.5" rx="0.5" transform="rotate(121, 251, 388)" opacity="0.75"></rect><rect width="340" height="1" x="464" y="740.5" rx="0.5" transform="rotate(121, 634, 741)" opacity="0.15"></rect><rect width="513" height="1" x="37.5" y="23.5" rx="0.5" transform="rotate(121, 294, 24)" opacity="0.82"></rect><rect width="229" height="1" x="-93.5" y="364.5" rx="0.5" transform="rotate(121, 21, 365)" opacity="0.48"></rect><rect width="386" height="1" x="-168" y="569.5" rx="0.5" transform="rotate(121, 25, 570)" opacity="0.63"></rect><rect width="399" height="1" x="20.5" y="175.5" rx="0.5" transform="rotate(121, 220, 176)" opacity="0.98"></rect><rect width="394" height="1" x="467" y="775.5" rx="0.5" transform="rotate(121, 664, 776)" opacity="0.19"></rect><rect width="666" height="1" x="72" y="589.5" rx="0.5" transform="rotate(121, 405, 590)" opacity="0.42"></rect><rect width="307" height="1" x="402.5" y="125.5" rx="0.5" transform="rotate(121, 556, 126)" opacity="0.80"></rect><rect width="166" height="1" x="688" y="756.5" rx="0.5" transform="rotate(121, 771, 757)" opacity="0.41"></rect><rect width="162" height="1" x="522" y="286.5" rx="0.5" transform="rotate(121, 603, 287)" opacity="0.53"></rect><rect width="89" height="1" x="299.5" y="731.5" rx="0.5" transform="rotate(121, 344, 732)" opacity="0.53"></rect><rect width="51" height="1" x="698.5" y="780.5" rx="0.5" transform="rotate(121, 724, 781)" opacity="0.44"></rect><rect width="489" height="1" x="492.5" y="174.5" rx="0.5" transform="rotate(121, 737, 175)" opacity="0.67"></rect><rect width="633" height="1" x="203.5" y="612.5" rx="0.5" transform="rotate(121, 520, 613)" opacity="0.67"></rect><rect width="371" height="1" x="-108.5" y="590.5" rx="0.5" transform="rotate(121, 77, 591)" opacity="0.40"></rect><rect width="562" height="1" x="-150" y="124.5" rx="0.5" transform="rotate(121, 131, 125)" opacity="0.94"></rect><rect width="587" height="1" x="402.5" y="451.5" rx="0.5" transform="rotate(121, 696, 452)" opacity="0.19"></rect><rect width="417" height="1" x="-193.5" y="245.5" rx="0.5" transform="rotate(121, 15, 246)" opacity="0.77"></rect><rect width="499" height="1" x="326.5" y="433.5" rx="0.5" transform="rotate(121, 576, 434)" opacity="0.91"></rect><rect width="198" height="1" x="681" y="635.5" rx="0.5" transform="rotate(121, 780, 636)" opacity="0.61"></rect><rect width="442" height="1" x="-108" y="299.5" rx="0.5" transform="rotate(121, 113, 300)" opacity="0.97"></rect><rect width="886" height="1" x="260" y="519.5" rx="0.5" transform="rotate(121, 703, 520)" opacity="0.24"></rect><rect width="124" height="1" x="523" y="212.5" rx="0.5" transform="rotate(121, 585, 213)" opacity="0.12"></rect><rect width="602" height="1" x="-230" y="624.5" rx="0.5" transform="rotate(121, 71, 625)" opacity="0.67"></rect><rect width="757" height="1" x="386.5" y="520.5" rx="0.5" transform="rotate(121, 765, 521)" opacity="0.77"></rect><rect width="333" height="1" x="148.5" y="445.5" rx="0.5" transform="rotate(121, 315, 446)" opacity="0.20"></rect><rect width="410" height="1" x="-103" y="63.5" rx="0.5" transform="rotate(121, 102, 64)" opacity="0.41"></rect><rect width="110" height="1" x="49" y="188.5" rx="0.5" transform="rotate(121, 104, 189)" opacity="0.79"></rect><rect width="119" height="1" x="-35.5" y="738.5" rx="0.5" transform="rotate(121, 24, 739)" opacity="0.92"></rect><rect width="100" height="1" x="19" y="685.5" rx="0.5" transform="rotate(121, 69, 686)" opacity="0.20"></rect><rect width="297" height="1" x="622.5" y="569.5" rx="0.5" transform="rotate(121, 771, 570)" opacity="0.91"></rect><rect width="717" height="1" x="-334.5" y="118.5" rx="0.5" transform="rotate(121, 24, 119)" opacity="0.18"></rect><rect width="72" height="1" x="220" y="523.5" rx="0.5" transform="rotate(121, 256, 524)" opacity="0.44"></rect><rect width="580" height="1" x="334" y="583.5" rx="0.5" transform="rotate(121, 624, 584)" opacity="0.20"></rect><rect width="539" height="1" x="-207.5" y="169.5" rx="0.5" transform="rotate(121, 62, 170)" opacity="0.96"></rect><rect width="268" height="1" x="-9" y="676.5" rx="0.5" transform="rotate(121, 125, 677)" opacity="0.92"></rect><rect width="953" height="1" x="-129.5" y="264.5" rx="0.5" transform="rotate(121, 347, 265)" opacity="0.21"></rect><rect width="708" height="1" x="-101" y="616.5" rx="0.5" transform="rotate(121, 253, 617)" opacity="0.43"></rect><rect width="967" height="1" x="-310.5" y="525.5" rx="0.5" transform="rotate(121, 173, 526)" opacity="0.38"></rect><rect width="1027" height="1" x="-194.5" y="337.5" rx="0.5" transform="rotate(121, 319, 338)" opacity="0.81"></rect><rect width="36" height="1" x="66" y="341.5" rx="0.5" transform="rotate(121, 84, 342)" opacity="0.50"></rect><rect width="721" height="1" x="126.5" y="297.5" rx="0.5" transform="rotate(121, 487, 298)" opacity="0.80"></rect><rect width="280" height="1" x="625" y="33.5" rx="0.5" transform="rotate(121, 765, 34)" opacity="0.39"></rect><rect width="833" height="1" x="-304.5" y="408.5" rx="0.5" transform="rotate(121, 112, 409)" opacity="0.67"></rect><rect width="272" height="1" x="77" y="331.5" rx="0.5" transform="rotate(121, 213, 332)" opacity="0.46"></rect><rect width="165" height="1" x="187.5" y="59.5" rx="0.5" transform="rotate(121, 270, 60)" opacity="0.14"></rect><rect width="938" height="1" x="193" y="93.5" rx="0.5" transform="rotate(121, 662, 94)" opacity="0.48"></rect><rect width="1050" height="1" x="-298" y="716.5" rx="0.5" transform="rotate(121, 227, 717)" opacity="0.89"></rect><rect width="1093" height="1" x="-166.5" y="433.5" rx="0.5" transform="rotate(121, 380, 434)" opacity="0.96"></rect><rect width="50" height="1" x="428" y="650.5" rx="0.5" transform="rotate(121, 453, 651)" opacity="0.90"></rect><rect width="1070" height="1" x="-364" y="417.5" rx="0.5" transform="rotate(121, 171, 418)" opacity="0.68"></rect><rect width="241" height="1" x="76.5" y="584.5" rx="0.5" transform="rotate(121, 197, 585)" opacity="0.70"></rect><rect width="313" height="1" x="516.5" y="568.5" rx="0.5" transform="rotate(121, 673, 569)" opacity="0.26"></rect><rect width="24" height="1" x="96" y="522.5" rx="0.5" transform="rotate(121, 108, 523)" opacity="0.88"></rect><rect width="86" height="1" x="597" y="413.5" rx="0.5" transform="rotate(121, 640, 414)" opacity="0.52"></rect><rect width="280" height="1" x="-58" y="554.5" rx="0.5" transform="rotate(121, 82, 555)" opacity="0.32"></rect><rect width="615" height="1" x="-239.5" y="385.5" rx="0.5" transform="rotate(121, 68, 386)" opacity="0.58"></rect><rect width="960" height="1" x="-181" y="666.5" rx="0.5" transform="rotate(121, 299, 667)" opacity="0.34"></rect><rect width="142" height="1" x="453" y="388.5" rx="0.5" transform="rotate(121, 524, 389)" opacity="0.45"></rect><rect width="651" height="1" x="395.5" y="579.5" rx="0.5" transform="rotate(121, 721, 580)" opacity="0.36"></rect><rect width="482" height="1" x="348" y="490.5" rx="0.5" transform="rotate(121, 589, 491)" opacity="0.82"></rect><rect width="697" height="1" x="333.5" y="674.5" rx="0.5" transform="rotate(121, 682, 675)" opacity="0.25"></rect><rect width="532" height="1" x="473" y="625.5" rx="0.5" transform="rotate(121, 739, 626)" opacity="0.89"></rect><rect width="1156" height="1" x="-175" y="326.5" rx="0.5" transform="rotate(121, 403, 327)" opacity="0.24"></rect><rect width="853" height="1" x="-239.5" y="671.5" rx="0.5" transform="rotate(121, 187, 672)" opacity="0.57"></rect><rect width="297" height="1" x="66.5" y="775.5" rx="0.5" transform="rotate(121, 215, 776)" opacity="0.34"></rect><rect width="308" height="1" x="118" y="226.5" rx="0.5" transform="rotate(121, 272, 227)" opacity="0.26"></rect><rect width="480" height="1" x="145" y="683.5" rx="0.5" transform="rotate(121, 385, 684)" opacity="0.84"></rect><rect width="727" height="1" x="30.5" y="181.5" rx="0.5" transform="rotate(121, 394, 182)" opacity="0.64"></rect><rect width="59" height="1" x="431.5" y="107.5" rx="0.5" transform="rotate(121, 461, 108)" opacity="0.87"></rect><rect width="669" height="1" x="180.5" y="692.5" rx="0.5" transform="rotate(121, 515, 693)" opacity="0.85"></rect><rect width="839" height="1" x="234.5" y="344.5" rx="0.5" transform="rotate(121, 654, 345)" opacity="0.28"></rect><rect width="840" height="1" x="-231" y="274.5" rx="0.5" transform="rotate(121, 189, 275)" opacity="0.85"></rect><rect width="888" height="1" x="-92" y="616.5" rx="0.5" transform="rotate(121, 352, 617)" opacity="0.12"></rect><rect width="460" height="1" x="477" y="320.5" rx="0.5" transform="rotate(121, 707, 321)" opacity="0.79"></rect><rect width="457" height="1" x="-211.5" y="180.5" rx="0.5" transform="rotate(121, 17, 181)" opacity="0.10"></rect><rect width="532" height="1" x="-196" y="244.5" rx="0.5" transform="rotate(121, 70, 245)" opacity="0.11"></rect><rect width="115" height="1" x="210.5" y="765.5" rx="0.5" transform="rotate(121, 268, 766)" opacity="0.81"></rect><rect width="361" height="1" x="-57.5" y="473.5" rx="0.5" transform="rotate(121, 123, 474)" opacity="0.32"></rect><rect width="178" height="1" x="265" y="55.5" rx="0.5" transform="rotate(121, 354, 56)" opacity="0.34"></rect><rect width="57" height="1" x="741.5" y="322.5" rx="0.5" transform="rotate(121, 770, 323)" opacity="0.98"></rect><rect width="874" height="1" x="289" y="104.5" rx="0.5" transform="rotate(121, 726, 105)" opacity="0.30"></rect><rect width="105" height="1" x="633.5" y="627.5" rx="0.5" transform="rotate(121, 686, 628)" opacity="0.86"></rect><rect width="497" height="1" x="340.5" y="366.5" rx="0.5" transform="rotate(121, 589, 367)" opacity="0.34"></rect><rect width="635" height="1" x="196.5" y="769.5" rx="0.5" transform="rotate(121, 514, 770)" opacity="0.95"></rect><rect width="1048" height="1" x="75" y="65.5" rx="0.5" transform="rotate(121, 599, 66)" opacity="0.83"></rect><rect width="471" height="1" x="305.5" y="323.5" rx="0.5" transform="rotate(121, 541, 324)" opacity="0.67"></rect><rect width="525" height="1" x="-94.5" y="226.5" rx="0.5" transform="rotate(121, 168, 227)" opacity="0.57"></rect><rect width="296" height="1" x="391" y="38.5" rx="0.5" transform="rotate(121, 539, 39)" opacity="0.93"></rect><rect width="760" height="1" x="177" y="554.5" rx="0.5" transform="rotate(121, 557, 555)" opacity="0.41"></rect><rect width="76" height="1" x="622" y="223.5" rx="0.5" transform="rotate(121, 660, 224)" opacity="0.76"></rect><rect width="447" height="1" x="478.5" y="731.5" rx="0.5" transform="rotate(121, 702, 732)" opacity="0.75"></rect><rect width="548" height="1" x="186" y="436.5" rx="0.5" transform="rotate(121, 460, 437)" opacity="0.45"></rect><rect width="908" height="1" x="183" y="152.5" rx="0.5" transform="rotate(121, 637, 153)" opacity="0.58"></rect><rect width="802" height="1" x="181" y="631.5" rx="0.5" transform="rotate(121, 582, 632)" opacity="0.28"></rect><rect width="592" height="1" x="160" y="30.5" rx="0.5" transform="rotate(121, 456, 31)" opacity="0.15"></rect><rect width="508" height="1" x="-108" y="619.5" rx="0.5" transform="rotate(121, 146, 620)" opacity="0.36"></rect><rect width="581" height="1" x="489.5" y="113.5" rx="0.5" transform="rotate(121, 780, 114)" opacity="0.23"></rect><rect width="901" height="1" x="-220.5" y="109.5" rx="0.5" transform="rotate(121, 230, 110)" opacity="0.21"></rect><rect width="463" height="1" x="273.5" y="432.5" rx="0.5" transform="rotate(121, 505, 433)" opacity="0.90"></rect><rect width="617" height="1" x="-195.5" y="18.5" rx="0.5" transform="rotate(121, 113, 19)" opacity="0.82"></rect><rect width="389" height="1" x="230.5" y="479.5" rx="0.5" transform="rotate(121, 425, 480)" opacity="0.83"></rect><rect width="511" height="1" x="-109.5" y="341.5" rx="0.5" transform="rotate(121, 146, 342)" opacity="0.63"></rect><rect width="336" height="1" x="532" y="48.5" rx="0.5" transform="rotate(121, 700, 49)" opacity="0.66"></rect><rect width="245" height="1" x="503.5" y="653.5" rx="0.5" transform="rotate(121, 626, 654)" opacity="0.76"></rect><rect width="170" height="1" x="227" y="127.5" rx="0.5" transform="rotate(121, 312, 128)" opacity="0.55"></rect><rect width="447" height="1" x="-163.5" y="304.5" rx="0.5" transform="rotate(121, 60, 305)" opacity="0.08"></rect><rect width="152" height="1" x="416" y="161.5" rx="0.5" transform="rotate(121, 492, 162)" opacity="0.30"></rect><rect width="922" height="1" x="-12" y="374.5" rx="0.5" transform="rotate(121, 449, 375)" opacity="0.61"></rect><rect width="286" height="1" x="621" y="465.5" rx="0.5" transform="rotate(121, 764, 466)" opacity="0.51"></rect><rect width="352" height="1" x="392" y="748.5" rx="0.5" transform="rotate(121, 568, 749)" opacity="0.95"></rect><rect width="962" height="1" x="-257" y="462.5" rx="0.5" transform="rotate(121, 224, 463)" opacity="0.31"></rect><rect width="678" height="1" x="169" y="500.5" rx="0.5" transform="rotate(121, 508, 501)" opacity="0.41"></rect><rect width="475" height="1" x="-113.5" y="583.5" rx="0.5" transform="rotate(121, 124, 584)" opacity="0.48"></rect><rect width="94" height="1" x="558" y="780.5" rx="0.5" transform="rotate(121, 605, 781)" opacity="0.19"></rect><rect width="363" height="1" x="464.5" y="501.5" rx="0.5" transform="rotate(121, 646, 502)" opacity="0.27"></rect><rect width="429" height="1" x="-125.5" y="760.5" rx="0.5" transform="rotate(121, 89, 761)" opacity="0.34"></rect><rect width="857" height="1" x="278.5" y="391.5" rx="0.5" transform="rotate(121, 707, 392)" opacity="0.92"></rect><rect width="744" height="1" x="-253" y="252.5" rx="0.5" transform="rotate(121, 119, 253)" opacity="0.61"></rect><rect width="329" height="1" x="165.5" y="543.5" rx="0.5" transform="rotate(121, 330, 544)" opacity="0.11"></rect><rect width="80" height="1" x="128" y="68.5" rx="0.5" transform="rotate(121, 168, 69)" opacity="0.09"></rect><rect width="239" height="1" x="206.5" y="773.5" rx="0.5" transform="rotate(121, 326, 774)" opacity="0.25"></rect></g></svg>